<mxfile host="app.diagrams.net" modified="2021-07-09T07:53:17.995Z" agent="5.0 (Windows NT 6.1; Win64; x64) AppleWebKit/537.36 (KHTML, like Gecko) Chrome/91.0.4472.124 Safari/537.36" etag="8zIFaavUu-fy4WwUJsCV" version="14.8.4" type="github">
  <diagram id="s7a3zdlbuCw73ao1MY6w" name="Page-1">
    <mxGraphModel dx="1422" dy="762" grid="1" gridSize="10" guides="1" tooltips="1" connect="1" arrows="1" fold="1" page="1" pageScale="1" pageWidth="827" pageHeight="1169" math="0" shadow="0">
      <root>
        <mxCell id="0" />
        <mxCell id="1" parent="0" />
        <mxCell id="Rim1ciA5dSw3_4zjMETF-1" value="驱动表" style="rounded=0;whiteSpace=wrap;html=1;gradientColor=#b3b3b3;fillColor=#f5f5f5;strokeColor=#666666;" vertex="1" parent="1">
          <mxGeometry x="120" y="240" width="120" height="40" as="geometry" />
        </mxCell>
        <mxCell id="Rim1ciA5dSw3_4zjMETF-2" value="" style="endArrow=classic;html=1;" edge="1" parent="1">
          <mxGeometry width="50" height="50" relative="1" as="geometry">
            <mxPoint x="30" y="260" as="sourcePoint" />
            <mxPoint x="120" y="260" as="targetPoint" />
          </mxGeometry>
        </mxCell>
        <mxCell id="Rim1ciA5dSw3_4zjMETF-4" value="只涉及驱动表的过滤条件" style="text;html=1;strokeColor=none;fillColor=none;align=center;verticalAlign=middle;whiteSpace=wrap;rounded=0;" vertex="1" parent="1">
          <mxGeometry x="30" y="230" width="80" height="20" as="geometry" />
        </mxCell>
        <mxCell id="Rim1ciA5dSw3_4zjMETF-5" value="" style="shape=table;html=1;whiteSpace=wrap;startSize=0;container=1;collapsible=0;childLayout=tableLayout;" vertex="1" parent="1">
          <mxGeometry x="360" y="210" width="186" height="100" as="geometry" />
        </mxCell>
        <mxCell id="Rim1ciA5dSw3_4zjMETF-6" value="" style="shape=partialRectangle;html=1;whiteSpace=wrap;collapsible=0;dropTarget=0;pointerEvents=0;fillColor=none;top=0;left=0;bottom=0;right=0;points=[[0,0.5],[1,0.5]];portConstraint=eastwest;" vertex="1" parent="Rim1ciA5dSw3_4zjMETF-5">
          <mxGeometry width="186" height="33" as="geometry" />
        </mxCell>
        <mxCell id="Rim1ciA5dSw3_4zjMETF-7" value="" style="shape=partialRectangle;html=1;whiteSpace=wrap;connectable=0;fillColor=none;top=0;left=0;bottom=0;right=0;overflow=hidden;" vertex="1" parent="Rim1ciA5dSw3_4zjMETF-6">
          <mxGeometry width="62" height="33" as="geometry" />
        </mxCell>
        <mxCell id="Rim1ciA5dSw3_4zjMETF-8" value="" style="shape=partialRectangle;html=1;whiteSpace=wrap;connectable=0;fillColor=none;top=0;left=0;bottom=0;right=0;overflow=hidden;" vertex="1" parent="Rim1ciA5dSw3_4zjMETF-6">
          <mxGeometry x="62" width="62" height="33" as="geometry" />
        </mxCell>
        <mxCell id="Rim1ciA5dSw3_4zjMETF-9" value="" style="shape=partialRectangle;html=1;whiteSpace=wrap;connectable=0;fillColor=none;top=0;left=0;bottom=0;right=0;overflow=hidden;" vertex="1" parent="Rim1ciA5dSw3_4zjMETF-6">
          <mxGeometry x="124" width="62" height="33" as="geometry" />
        </mxCell>
        <mxCell id="Rim1ciA5dSw3_4zjMETF-10" value="" style="shape=partialRectangle;html=1;whiteSpace=wrap;collapsible=0;dropTarget=0;pointerEvents=0;fillColor=none;top=0;left=0;bottom=0;right=0;points=[[0,0.5],[1,0.5]];portConstraint=eastwest;" vertex="1" parent="Rim1ciA5dSw3_4zjMETF-5">
          <mxGeometry y="33" width="186" height="34" as="geometry" />
        </mxCell>
        <mxCell id="Rim1ciA5dSw3_4zjMETF-11" value="" style="shape=partialRectangle;html=1;whiteSpace=wrap;connectable=0;fillColor=none;top=0;left=0;bottom=0;right=0;overflow=hidden;" vertex="1" parent="Rim1ciA5dSw3_4zjMETF-10">
          <mxGeometry width="62" height="34" as="geometry" />
        </mxCell>
        <mxCell id="Rim1ciA5dSw3_4zjMETF-12" value="" style="shape=partialRectangle;html=1;whiteSpace=wrap;connectable=0;fillColor=none;top=0;left=0;bottom=0;right=0;overflow=hidden;" vertex="1" parent="Rim1ciA5dSw3_4zjMETF-10">
          <mxGeometry x="62" width="62" height="34" as="geometry" />
        </mxCell>
        <mxCell id="Rim1ciA5dSw3_4zjMETF-13" value="" style="shape=partialRectangle;html=1;whiteSpace=wrap;connectable=0;fillColor=none;top=0;left=0;bottom=0;right=0;overflow=hidden;" vertex="1" parent="Rim1ciA5dSw3_4zjMETF-10">
          <mxGeometry x="124" width="62" height="34" as="geometry" />
        </mxCell>
        <mxCell id="Rim1ciA5dSw3_4zjMETF-14" value="" style="shape=partialRectangle;html=1;whiteSpace=wrap;collapsible=0;dropTarget=0;pointerEvents=0;fillColor=none;top=0;left=0;bottom=0;right=0;points=[[0,0.5],[1,0.5]];portConstraint=eastwest;" vertex="1" parent="Rim1ciA5dSw3_4zjMETF-5">
          <mxGeometry y="67" width="186" height="33" as="geometry" />
        </mxCell>
        <mxCell id="Rim1ciA5dSw3_4zjMETF-15" value="" style="shape=partialRectangle;html=1;whiteSpace=wrap;connectable=0;fillColor=none;top=0;left=0;bottom=0;right=0;overflow=hidden;" vertex="1" parent="Rim1ciA5dSw3_4zjMETF-14">
          <mxGeometry width="62" height="33" as="geometry" />
        </mxCell>
        <mxCell id="Rim1ciA5dSw3_4zjMETF-16" value="" style="shape=partialRectangle;html=1;whiteSpace=wrap;connectable=0;fillColor=none;top=0;left=0;bottom=0;right=0;overflow=hidden;" vertex="1" parent="Rim1ciA5dSw3_4zjMETF-14">
          <mxGeometry x="62" width="62" height="33" as="geometry" />
        </mxCell>
        <mxCell id="Rim1ciA5dSw3_4zjMETF-17" value="" style="shape=partialRectangle;html=1;whiteSpace=wrap;connectable=0;fillColor=none;top=0;left=0;bottom=0;right=0;overflow=hidden;" vertex="1" parent="Rim1ciA5dSw3_4zjMETF-14">
          <mxGeometry x="124" width="62" height="33" as="geometry" />
        </mxCell>
        <mxCell id="Rim1ciA5dSw3_4zjMETF-18" value="驱动表结果集" style="text;html=1;strokeColor=none;fillColor=none;align=center;verticalAlign=middle;whiteSpace=wrap;rounded=0;" vertex="1" parent="1">
          <mxGeometry x="398" y="170" width="110" height="20" as="geometry" />
        </mxCell>
        <mxCell id="Rim1ciA5dSw3_4zjMETF-19" value="" style="endArrow=classic;html=1;exitX=1;exitY=0.5;exitDx=0;exitDy=0;entryX=0;entryY=0.5;entryDx=0;entryDy=0;" edge="1" parent="1" source="Rim1ciA5dSw3_4zjMETF-1" target="Rim1ciA5dSw3_4zjMETF-10">
          <mxGeometry width="50" height="50" relative="1" as="geometry">
            <mxPoint x="274" y="300" as="sourcePoint" />
            <mxPoint x="324" y="250" as="targetPoint" />
          </mxGeometry>
        </mxCell>
        <mxCell id="Rim1ciA5dSw3_4zjMETF-20" value="最佳单表访问方式" style="text;html=1;strokeColor=none;fillColor=none;align=center;verticalAlign=middle;whiteSpace=wrap;rounded=0;" vertex="1" parent="1">
          <mxGeometry x="250" y="220" width="100" height="40" as="geometry" />
        </mxCell>
        <mxCell id="Rim1ciA5dSw3_4zjMETF-21" value="被驱动表" style="rounded=0;whiteSpace=wrap;html=1;gradientColor=#7ea6e0;fillColor=#dae8fc;strokeColor=#6c8ebf;" vertex="1" parent="1">
          <mxGeometry x="720" y="120" width="120" height="40" as="geometry" />
        </mxCell>
        <mxCell id="Rim1ciA5dSw3_4zjMETF-22" value="被驱动表" style="rounded=0;whiteSpace=wrap;html=1;gradientColor=#7ea6e0;fillColor=#dae8fc;strokeColor=#6c8ebf;" vertex="1" parent="1">
          <mxGeometry x="720" y="240" width="120" height="40" as="geometry" />
        </mxCell>
        <mxCell id="Rim1ciA5dSw3_4zjMETF-23" value="被驱动表" style="rounded=0;whiteSpace=wrap;html=1;gradientColor=#7ea6e0;fillColor=#dae8fc;strokeColor=#6c8ebf;" vertex="1" parent="1">
          <mxGeometry x="720" y="360" width="120" height="40" as="geometry" />
        </mxCell>
        <mxCell id="Rim1ciA5dSw3_4zjMETF-25" value="" style="endArrow=classic;html=1;entryX=0.5;entryY=0;entryDx=0;entryDy=0;" edge="1" parent="1" target="Rim1ciA5dSw3_4zjMETF-21">
          <mxGeometry width="50" height="50" relative="1" as="geometry">
            <mxPoint x="780" y="70" as="sourcePoint" />
            <mxPoint x="805" y="30" as="targetPoint" />
          </mxGeometry>
        </mxCell>
        <mxCell id="Rim1ciA5dSw3_4zjMETF-26" value="只涉及被驱动表过滤条件" style="text;html=1;strokeColor=none;fillColor=none;align=center;verticalAlign=middle;whiteSpace=wrap;rounded=0;" vertex="1" parent="1">
          <mxGeometry x="700" y="80" width="150" height="20" as="geometry" />
        </mxCell>
        <mxCell id="Rim1ciA5dSw3_4zjMETF-27" value="" style="endArrow=classic;html=1;entryX=0.5;entryY=0;entryDx=0;entryDy=0;" edge="1" parent="1">
          <mxGeometry width="50" height="50" relative="1" as="geometry">
            <mxPoint x="780" y="190" as="sourcePoint" />
            <mxPoint x="780" y="240" as="targetPoint" />
          </mxGeometry>
        </mxCell>
        <mxCell id="Rim1ciA5dSw3_4zjMETF-28" value="只涉及被驱动表过滤条件" style="text;html=1;strokeColor=none;fillColor=none;align=center;verticalAlign=middle;whiteSpace=wrap;rounded=0;" vertex="1" parent="1">
          <mxGeometry x="705" y="200" width="150" height="20" as="geometry" />
        </mxCell>
        <mxCell id="Rim1ciA5dSw3_4zjMETF-29" value="" style="endArrow=classic;html=1;entryX=0.5;entryY=0;entryDx=0;entryDy=0;" edge="1" parent="1">
          <mxGeometry width="50" height="50" relative="1" as="geometry">
            <mxPoint x="780" y="310" as="sourcePoint" />
            <mxPoint x="780" y="360" as="targetPoint" />
          </mxGeometry>
        </mxCell>
        <mxCell id="Rim1ciA5dSw3_4zjMETF-30" value="只涉及被驱动表过滤条件" style="text;html=1;strokeColor=none;fillColor=none;align=center;verticalAlign=middle;whiteSpace=wrap;rounded=0;" vertex="1" parent="1">
          <mxGeometry x="705" y="320" width="150" height="20" as="geometry" />
        </mxCell>
        <mxCell id="Rim1ciA5dSw3_4zjMETF-47" value="" style="shape=table;html=1;whiteSpace=wrap;startSize=0;container=1;collapsible=0;childLayout=tableLayout;" vertex="1" parent="1">
          <mxGeometry x="960" y="90" width="186" height="100" as="geometry" />
        </mxCell>
        <mxCell id="Rim1ciA5dSw3_4zjMETF-48" value="" style="shape=partialRectangle;html=1;whiteSpace=wrap;collapsible=0;dropTarget=0;pointerEvents=0;fillColor=none;top=0;left=0;bottom=0;right=0;points=[[0,0.5],[1,0.5]];portConstraint=eastwest;" vertex="1" parent="Rim1ciA5dSw3_4zjMETF-47">
          <mxGeometry width="186" height="33" as="geometry" />
        </mxCell>
        <mxCell id="Rim1ciA5dSw3_4zjMETF-49" value="" style="shape=partialRectangle;html=1;whiteSpace=wrap;connectable=0;fillColor=none;top=0;left=0;bottom=0;right=0;overflow=hidden;" vertex="1" parent="Rim1ciA5dSw3_4zjMETF-48">
          <mxGeometry width="62" height="33" as="geometry" />
        </mxCell>
        <mxCell id="Rim1ciA5dSw3_4zjMETF-50" value="" style="shape=partialRectangle;html=1;whiteSpace=wrap;connectable=0;fillColor=none;top=0;left=0;bottom=0;right=0;overflow=hidden;" vertex="1" parent="Rim1ciA5dSw3_4zjMETF-48">
          <mxGeometry x="62" width="62" height="33" as="geometry" />
        </mxCell>
        <mxCell id="Rim1ciA5dSw3_4zjMETF-51" value="" style="shape=partialRectangle;html=1;whiteSpace=wrap;connectable=0;fillColor=none;top=0;left=0;bottom=0;right=0;overflow=hidden;" vertex="1" parent="Rim1ciA5dSw3_4zjMETF-48">
          <mxGeometry x="124" width="62" height="33" as="geometry" />
        </mxCell>
        <mxCell id="Rim1ciA5dSw3_4zjMETF-52" value="" style="shape=partialRectangle;html=1;whiteSpace=wrap;collapsible=0;dropTarget=0;pointerEvents=0;fillColor=none;top=0;left=0;bottom=0;right=0;points=[[0,0.5],[1,0.5]];portConstraint=eastwest;" vertex="1" parent="Rim1ciA5dSw3_4zjMETF-47">
          <mxGeometry y="33" width="186" height="34" as="geometry" />
        </mxCell>
        <mxCell id="Rim1ciA5dSw3_4zjMETF-53" value="" style="shape=partialRectangle;html=1;whiteSpace=wrap;connectable=0;fillColor=none;top=0;left=0;bottom=0;right=0;overflow=hidden;" vertex="1" parent="Rim1ciA5dSw3_4zjMETF-52">
          <mxGeometry width="62" height="34" as="geometry" />
        </mxCell>
        <mxCell id="Rim1ciA5dSw3_4zjMETF-54" value="" style="shape=partialRectangle;html=1;whiteSpace=wrap;connectable=0;fillColor=none;top=0;left=0;bottom=0;right=0;overflow=hidden;" vertex="1" parent="Rim1ciA5dSw3_4zjMETF-52">
          <mxGeometry x="62" width="62" height="34" as="geometry" />
        </mxCell>
        <mxCell id="Rim1ciA5dSw3_4zjMETF-55" value="" style="shape=partialRectangle;html=1;whiteSpace=wrap;connectable=0;fillColor=none;top=0;left=0;bottom=0;right=0;overflow=hidden;" vertex="1" parent="Rim1ciA5dSw3_4zjMETF-52">
          <mxGeometry x="124" width="62" height="34" as="geometry" />
        </mxCell>
        <mxCell id="Rim1ciA5dSw3_4zjMETF-56" value="" style="shape=partialRectangle;html=1;whiteSpace=wrap;collapsible=0;dropTarget=0;pointerEvents=0;fillColor=none;top=0;left=0;bottom=0;right=0;points=[[0,0.5],[1,0.5]];portConstraint=eastwest;" vertex="1" parent="Rim1ciA5dSw3_4zjMETF-47">
          <mxGeometry y="67" width="186" height="33" as="geometry" />
        </mxCell>
        <mxCell id="Rim1ciA5dSw3_4zjMETF-57" value="" style="shape=partialRectangle;html=1;whiteSpace=wrap;connectable=0;fillColor=none;top=0;left=0;bottom=0;right=0;overflow=hidden;" vertex="1" parent="Rim1ciA5dSw3_4zjMETF-56">
          <mxGeometry width="62" height="33" as="geometry" />
        </mxCell>
        <mxCell id="Rim1ciA5dSw3_4zjMETF-58" value="" style="shape=partialRectangle;html=1;whiteSpace=wrap;connectable=0;fillColor=none;top=0;left=0;bottom=0;right=0;overflow=hidden;" vertex="1" parent="Rim1ciA5dSw3_4zjMETF-56">
          <mxGeometry x="62" width="62" height="33" as="geometry" />
        </mxCell>
        <mxCell id="Rim1ciA5dSw3_4zjMETF-59" value="" style="shape=partialRectangle;html=1;whiteSpace=wrap;connectable=0;fillColor=none;top=0;left=0;bottom=0;right=0;overflow=hidden;" vertex="1" parent="Rim1ciA5dSw3_4zjMETF-56">
          <mxGeometry x="124" width="62" height="33" as="geometry" />
        </mxCell>
        <mxCell id="Rim1ciA5dSw3_4zjMETF-60" value="联合结果集" style="text;html=1;strokeColor=none;fillColor=none;align=center;verticalAlign=middle;whiteSpace=wrap;rounded=0;" vertex="1" parent="1">
          <mxGeometry x="998" y="50" width="110" height="20" as="geometry" />
        </mxCell>
        <mxCell id="Rim1ciA5dSw3_4zjMETF-61" value="" style="endArrow=classic;html=1;exitX=1;exitY=0.5;exitDx=0;exitDy=0;entryX=0;entryY=0.5;entryDx=0;entryDy=0;" edge="1" parent="1" target="Rim1ciA5dSw3_4zjMETF-52">
          <mxGeometry width="50" height="50" relative="1" as="geometry">
            <mxPoint x="840" y="140" as="sourcePoint" />
            <mxPoint x="924" y="130" as="targetPoint" />
          </mxGeometry>
        </mxCell>
        <mxCell id="Rim1ciA5dSw3_4zjMETF-62" value="最佳单表访问方式" style="text;html=1;strokeColor=none;fillColor=none;align=center;verticalAlign=middle;whiteSpace=wrap;rounded=0;" vertex="1" parent="1">
          <mxGeometry x="850" y="100" width="100" height="40" as="geometry" />
        </mxCell>
        <mxCell id="Rim1ciA5dSw3_4zjMETF-63" value="" style="shape=table;html=1;whiteSpace=wrap;startSize=0;container=1;collapsible=0;childLayout=tableLayout;" vertex="1" parent="1">
          <mxGeometry x="960" y="210" width="186" height="100" as="geometry" />
        </mxCell>
        <mxCell id="Rim1ciA5dSw3_4zjMETF-64" value="" style="shape=partialRectangle;html=1;whiteSpace=wrap;collapsible=0;dropTarget=0;pointerEvents=0;fillColor=none;top=0;left=0;bottom=0;right=0;points=[[0,0.5],[1,0.5]];portConstraint=eastwest;" vertex="1" parent="Rim1ciA5dSw3_4zjMETF-63">
          <mxGeometry width="186" height="33" as="geometry" />
        </mxCell>
        <mxCell id="Rim1ciA5dSw3_4zjMETF-65" value="" style="shape=partialRectangle;html=1;whiteSpace=wrap;connectable=0;fillColor=none;top=0;left=0;bottom=0;right=0;overflow=hidden;" vertex="1" parent="Rim1ciA5dSw3_4zjMETF-64">
          <mxGeometry width="62" height="33" as="geometry" />
        </mxCell>
        <mxCell id="Rim1ciA5dSw3_4zjMETF-66" value="" style="shape=partialRectangle;html=1;whiteSpace=wrap;connectable=0;fillColor=none;top=0;left=0;bottom=0;right=0;overflow=hidden;" vertex="1" parent="Rim1ciA5dSw3_4zjMETF-64">
          <mxGeometry x="62" width="62" height="33" as="geometry" />
        </mxCell>
        <mxCell id="Rim1ciA5dSw3_4zjMETF-67" value="" style="shape=partialRectangle;html=1;whiteSpace=wrap;connectable=0;fillColor=none;top=0;left=0;bottom=0;right=0;overflow=hidden;" vertex="1" parent="Rim1ciA5dSw3_4zjMETF-64">
          <mxGeometry x="124" width="62" height="33" as="geometry" />
        </mxCell>
        <mxCell id="Rim1ciA5dSw3_4zjMETF-68" value="" style="shape=partialRectangle;html=1;whiteSpace=wrap;collapsible=0;dropTarget=0;pointerEvents=0;fillColor=none;top=0;left=0;bottom=0;right=0;points=[[0,0.5],[1,0.5]];portConstraint=eastwest;" vertex="1" parent="Rim1ciA5dSw3_4zjMETF-63">
          <mxGeometry y="33" width="186" height="34" as="geometry" />
        </mxCell>
        <mxCell id="Rim1ciA5dSw3_4zjMETF-69" value="" style="shape=partialRectangle;html=1;whiteSpace=wrap;connectable=0;fillColor=none;top=0;left=0;bottom=0;right=0;overflow=hidden;" vertex="1" parent="Rim1ciA5dSw3_4zjMETF-68">
          <mxGeometry width="62" height="34" as="geometry" />
        </mxCell>
        <mxCell id="Rim1ciA5dSw3_4zjMETF-70" value="" style="shape=partialRectangle;html=1;whiteSpace=wrap;connectable=0;fillColor=none;top=0;left=0;bottom=0;right=0;overflow=hidden;" vertex="1" parent="Rim1ciA5dSw3_4zjMETF-68">
          <mxGeometry x="62" width="62" height="34" as="geometry" />
        </mxCell>
        <mxCell id="Rim1ciA5dSw3_4zjMETF-71" value="" style="shape=partialRectangle;html=1;whiteSpace=wrap;connectable=0;fillColor=none;top=0;left=0;bottom=0;right=0;overflow=hidden;" vertex="1" parent="Rim1ciA5dSw3_4zjMETF-68">
          <mxGeometry x="124" width="62" height="34" as="geometry" />
        </mxCell>
        <mxCell id="Rim1ciA5dSw3_4zjMETF-72" value="" style="shape=partialRectangle;html=1;whiteSpace=wrap;collapsible=0;dropTarget=0;pointerEvents=0;fillColor=none;top=0;left=0;bottom=0;right=0;points=[[0,0.5],[1,0.5]];portConstraint=eastwest;" vertex="1" parent="Rim1ciA5dSw3_4zjMETF-63">
          <mxGeometry y="67" width="186" height="33" as="geometry" />
        </mxCell>
        <mxCell id="Rim1ciA5dSw3_4zjMETF-73" value="" style="shape=partialRectangle;html=1;whiteSpace=wrap;connectable=0;fillColor=none;top=0;left=0;bottom=0;right=0;overflow=hidden;" vertex="1" parent="Rim1ciA5dSw3_4zjMETF-72">
          <mxGeometry width="62" height="33" as="geometry" />
        </mxCell>
        <mxCell id="Rim1ciA5dSw3_4zjMETF-74" value="" style="shape=partialRectangle;html=1;whiteSpace=wrap;connectable=0;fillColor=none;top=0;left=0;bottom=0;right=0;overflow=hidden;" vertex="1" parent="Rim1ciA5dSw3_4zjMETF-72">
          <mxGeometry x="62" width="62" height="33" as="geometry" />
        </mxCell>
        <mxCell id="Rim1ciA5dSw3_4zjMETF-75" value="" style="shape=partialRectangle;html=1;whiteSpace=wrap;connectable=0;fillColor=none;top=0;left=0;bottom=0;right=0;overflow=hidden;" vertex="1" parent="Rim1ciA5dSw3_4zjMETF-72">
          <mxGeometry x="124" width="62" height="33" as="geometry" />
        </mxCell>
        <mxCell id="Rim1ciA5dSw3_4zjMETF-77" value="" style="endArrow=classic;html=1;exitX=1;exitY=0.5;exitDx=0;exitDy=0;entryX=0;entryY=0.5;entryDx=0;entryDy=0;" edge="1" parent="1" target="Rim1ciA5dSw3_4zjMETF-68">
          <mxGeometry width="50" height="50" relative="1" as="geometry">
            <mxPoint x="840" y="260" as="sourcePoint" />
            <mxPoint x="924" y="250" as="targetPoint" />
          </mxGeometry>
        </mxCell>
        <mxCell id="Rim1ciA5dSw3_4zjMETF-78" value="最佳单表访问方式" style="text;html=1;strokeColor=none;fillColor=none;align=center;verticalAlign=middle;whiteSpace=wrap;rounded=0;" vertex="1" parent="1">
          <mxGeometry x="850" y="220" width="100" height="40" as="geometry" />
        </mxCell>
        <mxCell id="Rim1ciA5dSw3_4zjMETF-79" value="" style="shape=table;html=1;whiteSpace=wrap;startSize=0;container=1;collapsible=0;childLayout=tableLayout;" vertex="1" parent="1">
          <mxGeometry x="960" y="330" width="186" height="100" as="geometry" />
        </mxCell>
        <mxCell id="Rim1ciA5dSw3_4zjMETF-80" value="" style="shape=partialRectangle;html=1;whiteSpace=wrap;collapsible=0;dropTarget=0;pointerEvents=0;fillColor=none;top=0;left=0;bottom=0;right=0;points=[[0,0.5],[1,0.5]];portConstraint=eastwest;" vertex="1" parent="Rim1ciA5dSw3_4zjMETF-79">
          <mxGeometry width="186" height="33" as="geometry" />
        </mxCell>
        <mxCell id="Rim1ciA5dSw3_4zjMETF-81" value="" style="shape=partialRectangle;html=1;whiteSpace=wrap;connectable=0;fillColor=none;top=0;left=0;bottom=0;right=0;overflow=hidden;" vertex="1" parent="Rim1ciA5dSw3_4zjMETF-80">
          <mxGeometry width="62" height="33" as="geometry" />
        </mxCell>
        <mxCell id="Rim1ciA5dSw3_4zjMETF-82" value="" style="shape=partialRectangle;html=1;whiteSpace=wrap;connectable=0;fillColor=none;top=0;left=0;bottom=0;right=0;overflow=hidden;" vertex="1" parent="Rim1ciA5dSw3_4zjMETF-80">
          <mxGeometry x="62" width="62" height="33" as="geometry" />
        </mxCell>
        <mxCell id="Rim1ciA5dSw3_4zjMETF-83" value="" style="shape=partialRectangle;html=1;whiteSpace=wrap;connectable=0;fillColor=none;top=0;left=0;bottom=0;right=0;overflow=hidden;" vertex="1" parent="Rim1ciA5dSw3_4zjMETF-80">
          <mxGeometry x="124" width="62" height="33" as="geometry" />
        </mxCell>
        <mxCell id="Rim1ciA5dSw3_4zjMETF-84" value="" style="shape=partialRectangle;html=1;whiteSpace=wrap;collapsible=0;dropTarget=0;pointerEvents=0;fillColor=none;top=0;left=0;bottom=0;right=0;points=[[0,0.5],[1,0.5]];portConstraint=eastwest;" vertex="1" parent="Rim1ciA5dSw3_4zjMETF-79">
          <mxGeometry y="33" width="186" height="34" as="geometry" />
        </mxCell>
        <mxCell id="Rim1ciA5dSw3_4zjMETF-85" value="" style="shape=partialRectangle;html=1;whiteSpace=wrap;connectable=0;fillColor=none;top=0;left=0;bottom=0;right=0;overflow=hidden;" vertex="1" parent="Rim1ciA5dSw3_4zjMETF-84">
          <mxGeometry width="62" height="34" as="geometry" />
        </mxCell>
        <mxCell id="Rim1ciA5dSw3_4zjMETF-86" value="" style="shape=partialRectangle;html=1;whiteSpace=wrap;connectable=0;fillColor=none;top=0;left=0;bottom=0;right=0;overflow=hidden;" vertex="1" parent="Rim1ciA5dSw3_4zjMETF-84">
          <mxGeometry x="62" width="62" height="34" as="geometry" />
        </mxCell>
        <mxCell id="Rim1ciA5dSw3_4zjMETF-87" value="" style="shape=partialRectangle;html=1;whiteSpace=wrap;connectable=0;fillColor=none;top=0;left=0;bottom=0;right=0;overflow=hidden;" vertex="1" parent="Rim1ciA5dSw3_4zjMETF-84">
          <mxGeometry x="124" width="62" height="34" as="geometry" />
        </mxCell>
        <mxCell id="Rim1ciA5dSw3_4zjMETF-88" value="" style="shape=partialRectangle;html=1;whiteSpace=wrap;collapsible=0;dropTarget=0;pointerEvents=0;fillColor=none;top=0;left=0;bottom=0;right=0;points=[[0,0.5],[1,0.5]];portConstraint=eastwest;" vertex="1" parent="Rim1ciA5dSw3_4zjMETF-79">
          <mxGeometry y="67" width="186" height="33" as="geometry" />
        </mxCell>
        <mxCell id="Rim1ciA5dSw3_4zjMETF-89" value="" style="shape=partialRectangle;html=1;whiteSpace=wrap;connectable=0;fillColor=none;top=0;left=0;bottom=0;right=0;overflow=hidden;" vertex="1" parent="Rim1ciA5dSw3_4zjMETF-88">
          <mxGeometry width="62" height="33" as="geometry" />
        </mxCell>
        <mxCell id="Rim1ciA5dSw3_4zjMETF-90" value="" style="shape=partialRectangle;html=1;whiteSpace=wrap;connectable=0;fillColor=none;top=0;left=0;bottom=0;right=0;overflow=hidden;" vertex="1" parent="Rim1ciA5dSw3_4zjMETF-88">
          <mxGeometry x="62" width="62" height="33" as="geometry" />
        </mxCell>
        <mxCell id="Rim1ciA5dSw3_4zjMETF-91" value="" style="shape=partialRectangle;html=1;whiteSpace=wrap;connectable=0;fillColor=none;top=0;left=0;bottom=0;right=0;overflow=hidden;" vertex="1" parent="Rim1ciA5dSw3_4zjMETF-88">
          <mxGeometry x="124" width="62" height="33" as="geometry" />
        </mxCell>
        <mxCell id="Rim1ciA5dSw3_4zjMETF-92" value="" style="endArrow=classic;html=1;exitX=1;exitY=0.5;exitDx=0;exitDy=0;entryX=0;entryY=0.5;entryDx=0;entryDy=0;" edge="1" parent="1" target="Rim1ciA5dSw3_4zjMETF-84">
          <mxGeometry width="50" height="50" relative="1" as="geometry">
            <mxPoint x="840" y="380" as="sourcePoint" />
            <mxPoint x="924" y="370" as="targetPoint" />
          </mxGeometry>
        </mxCell>
        <mxCell id="Rim1ciA5dSw3_4zjMETF-93" value="最佳单表访问方式" style="text;html=1;strokeColor=none;fillColor=none;align=center;verticalAlign=middle;whiteSpace=wrap;rounded=0;" vertex="1" parent="1">
          <mxGeometry x="850" y="340" width="100" height="40" as="geometry" />
        </mxCell>
        <mxCell id="Rim1ciA5dSw3_4zjMETF-94" value="" style="endArrow=classic;html=1;entryX=0;entryY=0.5;entryDx=0;entryDy=0;" edge="1" parent="1" target="Rim1ciA5dSw3_4zjMETF-21">
          <mxGeometry width="50" height="50" relative="1" as="geometry">
            <mxPoint x="546" y="230" as="sourcePoint" />
            <mxPoint x="596" y="180" as="targetPoint" />
            <Array as="points">
              <mxPoint x="600" y="230" />
              <mxPoint x="600" y="140" />
            </Array>
          </mxGeometry>
        </mxCell>
        <mxCell id="Rim1ciA5dSw3_4zjMETF-95" value="" style="endArrow=classic;html=1;entryX=0;entryY=0.5;entryDx=0;entryDy=0;exitX=1;exitY=0.5;exitDx=0;exitDy=0;" edge="1" parent="1" source="Rim1ciA5dSw3_4zjMETF-10" target="Rim1ciA5dSw3_4zjMETF-22">
          <mxGeometry width="50" height="50" relative="1" as="geometry">
            <mxPoint x="546" y="270" as="sourcePoint" />
            <mxPoint x="596" y="220" as="targetPoint" />
          </mxGeometry>
        </mxCell>
        <mxCell id="Rim1ciA5dSw3_4zjMETF-96" value="" style="endArrow=classic;html=1;entryX=0;entryY=0.5;entryDx=0;entryDy=0;exitX=1;exitY=0.5;exitDx=0;exitDy=0;" edge="1" parent="1" source="Rim1ciA5dSw3_4zjMETF-14" target="Rim1ciA5dSw3_4zjMETF-23">
          <mxGeometry width="50" height="50" relative="1" as="geometry">
            <mxPoint x="480" y="350" as="sourcePoint" />
            <mxPoint x="530" y="300" as="targetPoint" />
            <Array as="points">
              <mxPoint x="600" y="294" />
              <mxPoint x="600" y="380" />
            </Array>
          </mxGeometry>
        </mxCell>
        <mxCell id="Rim1ciA5dSw3_4zjMETF-97" value="两表关联条件" style="text;html=1;strokeColor=none;fillColor=none;align=center;verticalAlign=middle;whiteSpace=wrap;rounded=0;" vertex="1" parent="1">
          <mxGeometry x="600" y="120" width="90" height="20" as="geometry" />
        </mxCell>
        <mxCell id="Rim1ciA5dSw3_4zjMETF-98" value="两表关联条件" style="text;html=1;strokeColor=none;fillColor=none;align=center;verticalAlign=middle;whiteSpace=wrap;rounded=0;" vertex="1" parent="1">
          <mxGeometry x="600" y="240" width="90" height="20" as="geometry" />
        </mxCell>
        <mxCell id="Rim1ciA5dSw3_4zjMETF-99" value="两表关联条件" style="text;html=1;strokeColor=none;fillColor=none;align=center;verticalAlign=middle;whiteSpace=wrap;rounded=0;" vertex="1" parent="1">
          <mxGeometry x="600" y="360" width="90" height="20" as="geometry" />
        </mxCell>
        <mxCell id="Rim1ciA5dSw3_4zjMETF-100" value="" style="shape=table;html=1;whiteSpace=wrap;startSize=0;container=1;collapsible=0;childLayout=tableLayout;" vertex="1" parent="1">
          <mxGeometry x="360" y="560" width="186" height="100" as="geometry" />
        </mxCell>
        <mxCell id="Rim1ciA5dSw3_4zjMETF-101" value="" style="shape=partialRectangle;html=1;whiteSpace=wrap;collapsible=0;dropTarget=0;pointerEvents=0;fillColor=none;top=0;left=0;bottom=0;right=0;points=[[0,0.5],[1,0.5]];portConstraint=eastwest;" vertex="1" parent="Rim1ciA5dSw3_4zjMETF-100">
          <mxGeometry width="186" height="33" as="geometry" />
        </mxCell>
        <mxCell id="Rim1ciA5dSw3_4zjMETF-102" value="" style="shape=partialRectangle;html=1;whiteSpace=wrap;connectable=0;fillColor=none;top=0;left=0;bottom=0;right=0;overflow=hidden;" vertex="1" parent="Rim1ciA5dSw3_4zjMETF-101">
          <mxGeometry width="62" height="33" as="geometry" />
        </mxCell>
        <mxCell id="Rim1ciA5dSw3_4zjMETF-103" value="" style="shape=partialRectangle;html=1;whiteSpace=wrap;connectable=0;fillColor=none;top=0;left=0;bottom=0;right=0;overflow=hidden;" vertex="1" parent="Rim1ciA5dSw3_4zjMETF-101">
          <mxGeometry x="62" width="62" height="33" as="geometry" />
        </mxCell>
        <mxCell id="Rim1ciA5dSw3_4zjMETF-104" value="" style="shape=partialRectangle;html=1;whiteSpace=wrap;connectable=0;fillColor=none;top=0;left=0;bottom=0;right=0;overflow=hidden;" vertex="1" parent="Rim1ciA5dSw3_4zjMETF-101">
          <mxGeometry x="124" width="62" height="33" as="geometry" />
        </mxCell>
        <mxCell id="Rim1ciA5dSw3_4zjMETF-105" value="" style="shape=partialRectangle;html=1;whiteSpace=wrap;collapsible=0;dropTarget=0;pointerEvents=0;fillColor=none;top=0;left=0;bottom=0;right=0;points=[[0,0.5],[1,0.5]];portConstraint=eastwest;" vertex="1" parent="Rim1ciA5dSw3_4zjMETF-100">
          <mxGeometry y="33" width="186" height="34" as="geometry" />
        </mxCell>
        <mxCell id="Rim1ciA5dSw3_4zjMETF-106" value="" style="shape=partialRectangle;html=1;whiteSpace=wrap;connectable=0;fillColor=none;top=0;left=0;bottom=0;right=0;overflow=hidden;" vertex="1" parent="Rim1ciA5dSw3_4zjMETF-105">
          <mxGeometry width="62" height="34" as="geometry" />
        </mxCell>
        <mxCell id="Rim1ciA5dSw3_4zjMETF-107" value="" style="shape=partialRectangle;html=1;whiteSpace=wrap;connectable=0;fillColor=none;top=0;left=0;bottom=0;right=0;overflow=hidden;" vertex="1" parent="Rim1ciA5dSw3_4zjMETF-105">
          <mxGeometry x="62" width="62" height="34" as="geometry" />
        </mxCell>
        <mxCell id="Rim1ciA5dSw3_4zjMETF-108" value="" style="shape=partialRectangle;html=1;whiteSpace=wrap;connectable=0;fillColor=none;top=0;left=0;bottom=0;right=0;overflow=hidden;" vertex="1" parent="Rim1ciA5dSw3_4zjMETF-105">
          <mxGeometry x="124" width="62" height="34" as="geometry" />
        </mxCell>
        <mxCell id="Rim1ciA5dSw3_4zjMETF-109" value="" style="shape=partialRectangle;html=1;whiteSpace=wrap;collapsible=0;dropTarget=0;pointerEvents=0;fillColor=none;top=0;left=0;bottom=0;right=0;points=[[0,0.5],[1,0.5]];portConstraint=eastwest;" vertex="1" parent="Rim1ciA5dSw3_4zjMETF-100">
          <mxGeometry y="67" width="186" height="33" as="geometry" />
        </mxCell>
        <mxCell id="Rim1ciA5dSw3_4zjMETF-110" value="" style="shape=partialRectangle;html=1;whiteSpace=wrap;connectable=0;fillColor=none;top=0;left=0;bottom=0;right=0;overflow=hidden;" vertex="1" parent="Rim1ciA5dSw3_4zjMETF-109">
          <mxGeometry width="62" height="33" as="geometry" />
        </mxCell>
        <mxCell id="Rim1ciA5dSw3_4zjMETF-111" value="" style="shape=partialRectangle;html=1;whiteSpace=wrap;connectable=0;fillColor=none;top=0;left=0;bottom=0;right=0;overflow=hidden;" vertex="1" parent="Rim1ciA5dSw3_4zjMETF-109">
          <mxGeometry x="62" width="62" height="33" as="geometry" />
        </mxCell>
        <mxCell id="Rim1ciA5dSw3_4zjMETF-112" value="" style="shape=partialRectangle;html=1;whiteSpace=wrap;connectable=0;fillColor=none;top=0;left=0;bottom=0;right=0;overflow=hidden;" vertex="1" parent="Rim1ciA5dSw3_4zjMETF-109">
          <mxGeometry x="124" width="62" height="33" as="geometry" />
        </mxCell>
        <mxCell id="Rim1ciA5dSw3_4zjMETF-113" value="驱动表" style="rounded=0;whiteSpace=wrap;html=1;gradientColor=#b3b3b3;fillColor=#f5f5f5;strokeColor=#666666;" vertex="1" parent="1">
          <mxGeometry x="120" y="590" width="120" height="40" as="geometry" />
        </mxCell>
        <mxCell id="Rim1ciA5dSw3_4zjMETF-114" value="" style="endArrow=classic;html=1;" edge="1" parent="1">
          <mxGeometry width="50" height="50" relative="1" as="geometry">
            <mxPoint x="30" y="610" as="sourcePoint" />
            <mxPoint x="120" y="610" as="targetPoint" />
          </mxGeometry>
        </mxCell>
        <mxCell id="Rim1ciA5dSw3_4zjMETF-115" value="只涉及驱动表的过滤条件" style="text;html=1;strokeColor=none;fillColor=none;align=center;verticalAlign=middle;whiteSpace=wrap;rounded=0;" vertex="1" parent="1">
          <mxGeometry x="30" y="580" width="80" height="20" as="geometry" />
        </mxCell>
        <mxCell id="Rim1ciA5dSw3_4zjMETF-116" value="" style="endArrow=classic;html=1;exitX=1;exitY=0.5;exitDx=0;exitDy=0;entryX=0;entryY=0.5;entryDx=0;entryDy=0;" edge="1" parent="1" source="Rim1ciA5dSw3_4zjMETF-113">
          <mxGeometry width="50" height="50" relative="1" as="geometry">
            <mxPoint x="274" y="650" as="sourcePoint" />
            <mxPoint x="360" y="610" as="targetPoint" />
          </mxGeometry>
        </mxCell>
        <mxCell id="Rim1ciA5dSw3_4zjMETF-117" value="最佳单表访问方式" style="text;html=1;strokeColor=none;fillColor=none;align=center;verticalAlign=middle;whiteSpace=wrap;rounded=0;" vertex="1" parent="1">
          <mxGeometry x="250" y="570" width="100" height="40" as="geometry" />
        </mxCell>
        <mxCell id="Rim1ciA5dSw3_4zjMETF-118" value="驱动表结果集" style="text;html=1;strokeColor=none;fillColor=none;align=center;verticalAlign=middle;whiteSpace=wrap;rounded=0;" vertex="1" parent="1">
          <mxGeometry x="390" y="540" width="110" height="20" as="geometry" />
        </mxCell>
        <mxCell id="Rim1ciA5dSw3_4zjMETF-119" value="" style="endArrow=classic;html=1;exitX=1;exitY=0.5;exitDx=0;exitDy=0;" edge="1" parent="1" source="Rim1ciA5dSw3_4zjMETF-105">
          <mxGeometry width="50" height="50" relative="1" as="geometry">
            <mxPoint x="580" y="550" as="sourcePoint" />
            <mxPoint x="650" y="610" as="targetPoint" />
          </mxGeometry>
        </mxCell>
        <mxCell id="Rim1ciA5dSw3_4zjMETF-120" value="" style="rounded=1;whiteSpace=wrap;html=1;strokeWidth=2;fillWeight=4;hachureGap=8;hachureAngle=45;fillColor=#1ba1e2;sketch=1;" vertex="1" parent="1">
          <mxGeometry x="650" y="580" width="120" height="60" as="geometry" />
        </mxCell>
        <mxCell id="Rim1ciA5dSw3_4zjMETF-121" value="join buffer" style="text;html=1;strokeColor=none;fillColor=none;align=center;verticalAlign=middle;whiteSpace=wrap;rounded=0;" vertex="1" parent="1">
          <mxGeometry x="655" y="550" width="110" height="20" as="geometry" />
        </mxCell>
        <mxCell id="Rim1ciA5dSw3_4zjMETF-122" value="被驱动表" style="rounded=0;whiteSpace=wrap;html=1;gradientColor=#7ea6e0;fillColor=#dae8fc;strokeColor=#6c8ebf;" vertex="1" parent="1">
          <mxGeometry x="960" y="590" width="120" height="40" as="geometry" />
        </mxCell>
        <mxCell id="Rim1ciA5dSw3_4zjMETF-123" value="" style="endArrow=classic;html=1;exitX=1;exitY=0.5;exitDx=0;exitDy=0;entryX=0;entryY=0.5;entryDx=0;entryDy=0;entryPerimeter=0;" edge="1" parent="1" source="Rim1ciA5dSw3_4zjMETF-120" target="Rim1ciA5dSw3_4zjMETF-122">
          <mxGeometry width="50" height="50" relative="1" as="geometry">
            <mxPoint x="580" y="550" as="sourcePoint" />
            <mxPoint x="630" y="500" as="targetPoint" />
          </mxGeometry>
        </mxCell>
        <mxCell id="Rim1ciA5dSw3_4zjMETF-124" value="批量和驱动表的数据做匹配" style="text;html=1;strokeColor=none;fillColor=none;align=center;verticalAlign=middle;whiteSpace=wrap;rounded=0;" vertex="1" parent="1">
          <mxGeometry x="810" y="590" width="110" height="20" as="geometry" />
        </mxCell>
        <mxCell id="Rim1ciA5dSw3_4zjMETF-125" value="" style="endArrow=classic;html=1;entryX=0.5;entryY=0;entryDx=0;entryDy=0;" edge="1" parent="1">
          <mxGeometry width="50" height="50" relative="1" as="geometry">
            <mxPoint x="1010" y="540" as="sourcePoint" />
            <mxPoint x="1010" y="590" as="targetPoint" />
          </mxGeometry>
        </mxCell>
        <mxCell id="Rim1ciA5dSw3_4zjMETF-126" value="只涉及被驱动表过滤条件" style="text;html=1;strokeColor=none;fillColor=none;align=center;verticalAlign=middle;whiteSpace=wrap;rounded=0;" vertex="1" parent="1">
          <mxGeometry x="930" y="550" width="150" height="20" as="geometry" />
        </mxCell>
      </root>
    </mxGraphModel>
  </diagram>
</mxfile>
